<?xml version="1.0" encoding="UTF-8"?>
<svg id="Calque_1" data-name="Calque 1" xmlns="http://www.w3.org/2000/svg" viewBox="0 0 64.93 20.11">
  <g>
    <path d="m44.78,12.37c.17-.16.31-.29.45-.43.47-.47.84-1.01,1.12-1.61.26-.56.44-1.15.49-1.77.08-.86.01-1.72-.29-2.54-.36-1-.95-1.84-1.77-2.52-.68-.56-1.44-.94-2.3-1.14-.63-.15-1.27-.19-1.91-.13-.98.1-1.88.43-2.69,1-1.01.72-1.73,1.66-2.14,2.83-.24.71-.35,1.43-.31,2.18.06.9.3,1.75.75,2.53.45.78,1.05,1.42,1.81,1.92.52.35,1.08.6,1.69.76.77.2,1.54.24,2.33.12.6-.09,1.18-.27,1.72-.55.23-.12.47-.16.71-.21.44-.09.85-.22,1.25-.42.69-.35,1.27-.83,1.72-1.46.28-.39.49-.82.64-1.28.26-.8.36-1.62.33-2.45-.03-.74-.12-1.48-.31-2.2-.04-.14-.07-.27-.1-.41-.02-.08-.06-.1-.14-.07-.26.11-.51.22-.77.33-.1.04-.1.1-.08.19.07.27.15.54.21.81.08.39.16.77.21,1.16.05.41.1.82.1,1.23,0,.69-.07,1.37-.33,2.02-.2.5-.5.93-.92,1.27-.43.35-.89.62-1.4.81-.01,0-.03,0-.07.02Zm-9.02-4.93c.05-1.49,1.01-3.6,3.27-4.58,2.17-.94,4.73-.34,6.29,1.46,1.55,1.8,1.78,4.42.55,6.41-.45.72-1.02,1.32-1.74,1.78-.81.53-1.94.82-2.35.79,2.78-.38,4.87-2.79,4.7-5.7-.16-2.66-2.3-4.91-5.15-5.01-2.83-.1-5.24,1.97-5.57,4.84Zm9.01,1.24c.14,0,.26,0,.39,0,.18,0,.3.15.26.33-.2.8-.6,1.49-1.19,2.06-.14.14-.32.11-.42-.06-.05-.09-.1-.18-.15-.26-.04-.06-.02-.09.02-.13.09-.08.17-.17.25-.26.43-.49.71-1.05.85-1.69Zm.24-1.5c-.05,0-.1,0-.15,0-.07,0-.1-.02-.11-.08-.14-.66-.47-1.22-.92-1.73-.07-.08-.18-.15-.18-.23,0-.09.09-.18.14-.27.12-.2.3-.22.47-.06.53.54.9,1.16,1.13,1.88.1.33,0,.52-.37.49Zm-5.19,4.55c.05-.08.08-.13.1-.18.04-.1.1-.12.21-.09.61.18,1.23.19,1.86.05.11-.02.25-.1.33-.06.09.05.13.19.19.3.09.17.02.35-.17.4-.17.04-.34.09-.51.11-.12.01-.24,0-.35-.02-.21-.04-.42-.09-.63-.16-.34-.11-.67-.23-1.02-.36Zm-.02-7.65c-.09-.17-.02-.34.17-.39.44-.13.88-.17,1.33-.16.35,0,.69.06,1.02.16.17.05.26.2.19.35-.04.09-.09.16-.14.25-.84-.37-1.7-.46-2.58-.21Zm-.43,3.65c-.02-.64.58-1.61,1.71-1.68,1.06-.06,1.96.79,1.95,1.86,0,1.08-.92,1.81-1.73,1.8,1.16-.21,1.61-1.16,1.55-1.86-.07-.89-.69-1.53-1.55-1.63-.79-.09-1.72.4-1.94,1.5Zm-.91,3.33c-.13.13-.26.13-.38,0-.59-.58-.99-1.26-1.19-2.06-.03-.12.03-.24.14-.3.1-.05.13-.04.16.07.22.84.59,1.6,1.22,2.22.02.02.04.04.05.06Zm-1.39-3.91c-.15-.03-.23-.16-.18-.31.12-.33.23-.66.38-.97.19-.41.48-.76.8-1.08.13-.13.26-.13.38,0-.79.59-1.25,1.38-1.37,2.36Zm.29.01c-.05-.61.69-1.89,1.24-2.14q.1.13-.01.24c-.51.5-.85,1.09-1.02,1.77-.04.15-.04.15-.21.12Zm3.79,1.09c-.18,0-.33-.15-.33-.32,0-.18.15-.33.33-.33.18,0,.32.14.32.32,0,.19-.14.33-.33.33Zm-3.46-3.34s.02.01.02.02c-.02.03-.04.06-.07.09-.41.53-.71,1.11-.88,1.76-.08.3.1.54.41.54.1,0,.2,0,.3,0,.3,0,.59.02.89.03-.41.03-.82.05-1.23.05-.34,0-.56-.3-.47-.63.14-.55.38-1.06.73-1.52.09-.12.19-.23.29-.35Zm4.41,7.49s0,.01,0,.02c-.03,0-.07.02-.1.03-.35.08-.71.12-1.07.09-.34-.03-.69-.08-1.03-.16-.34-.08-.46-.43-.29-.73.04-.08.09-.15.13-.22.14-.23.28-.46.42-.69,0,.05-.01.09-.03.12-.14.26-.28.52-.43.78-.18.32-.07.59.28.68.54.14,1.1.19,1.66.14.15-.01.29-.03.44-.05Zm2.88-5.05s0,.02,0,.03c-.41,0-.81.02-1.22.02-.22,0-.36-.11-.46-.3-.11-.21-.23-.41-.35-.61-.12-.19-.14-.38-.02-.57.13-.22.27-.45.4-.67.06-.09.12-.18.18-.28,0,.05-.02.09-.04.12-.15.27-.29.55-.45.82-.12.2-.1.37.03.56.12.18.23.37.32.56.09.18.22.27.41.28.12,0,.23,0,.35,0,.28,0,.56.02.84.02Zm-4.01-1.76s0,0,0,.01c-.05.01-.1.02-.15.03-.21.03-.38-.03-.49-.21-.25-.41-.49-.81-.72-1.23-.16-.28-.03-.59.27-.7.06-.02.13-.04.2-.05.29-.06.59-.11.84-.09-.3.07-.65.13-.99.22-.25.07-.36.34-.24.57.23.42.47.84.71,1.26.09.16.24.22.43.2.05,0,.1,0,.15,0Zm-3.99,2.94c-.24.19-.28.32-.2.59.22.75.6,1.4,1.12,1.97.18.2.37.29.65.15-.2.17-.43.14-.63-.04-.28-.27-.53-.57-.73-.9-.24-.4-.42-.82-.51-1.28-.04-.22.07-.41.29-.5Zm.48.16c.09-.04.09.02.11.08.17.71.52,1.32,1.05,1.83q.1.1,0,.2c-.48-.39-1.03-1.4-1.16-2.11Zm6.14,2.29s-.03.02-.04.03c-.23-.38-.46-.75-.67-1.14-.08-.14-.06-.29.02-.43.12-.18.25-.35.37-.53,0,0,.02,0,.02.01-.09.15-.17.31-.27.46-.11.17-.13.34-.02.52.2.35.39.71.59,1.07Zm-2.53-3.47c-.21.1-.31.25-.29.46.02.17.12.28.28.32.25.06.41-.06.53-.3-.04.27-.24.42-.48.41-.24-.02-.44-.23-.43-.47,0-.25.21-.44.39-.43Zm-.76.67s0,.02.01.03c-.09.06-.19.12-.28.18-.12.07-.25.02-.27-.12-.02-.15-.03-.31-.02-.46,0-.07.04-.15.05-.22.02.22.03.43.06.65.01.1.07.12.16.08.1-.04.2-.09.29-.13Zm1.76.82c-.16.18-.37.28-.6.33-.09.02-.19-.04-.2-.13,0-.13.01-.27.02-.4.01,0,.02,0,.04,0,0,.1.01.2.02.3,0,.13.04.16.16.12.19-.07.37-.15.57-.22Zm0-1.78c-.3.28-.43.29-.7.07-.09-.07-.09-.34,0-.5,0,.05.01.09.01.14-.02.19.05.33.24.41.07.03.11.04.18.01.09-.04.18-.08.27-.12Zm-1.09-3c-.28.06-.6.13-.93.19-.03,0-.06-.04-.1-.05.36-.13.72-.16,1.03-.14Zm-.88,4.5c.04.06.07.13.12.17.13.1.27.19.41.29.04.02.07.05.11.07-.26-.03-.47-.15-.63-.35-.05-.06-.06-.13-.01-.18Zm.03-1.72c.06.05.11.1.17.15.04.03.09.04.13.08.13.11.26.16.42.05,0,0,.01,0,.02,0-.16.18-.22.19-.41.07-.09-.05-.17-.11-.25-.17-.07-.05-.1-.11-.07-.18Zm2.1,1.35s-.02.03-.03.04c-.11-.06-.23-.12-.33-.19-.04-.03-.05-.1-.05-.15,0-.06,0-.12.02-.18,0-.05.02-.09.04-.13.03.1.04.2.04.29,0,.07.02.11.08.15.08.06.16.12.24.18Zm-1.82,3.89c-.31,0-.56-.11-.6-.25.2.08.39.16.6.25Z" style="fill: #fff; stroke-width: 0px;"/>
    <text/>
    <path d="m39.37,7.73c.22-1.1,1.14-1.59,1.94-1.5.86.09,1.48.74,1.55,1.63.05.7-.39,1.65-1.55,1.86.81,0,1.72-.71,1.73-1.8,0-1.08-.9-1.92-1.95-1.86-1.13.06-1.73,1.04-1.71,1.68Z" style="fill: #fff; stroke-width: 0px;"/>
    <path d="m37.69,4.91c-.1.12-.2.23-.29.35-.34.46-.59.96-.73,1.52-.08.33.13.63.47.63.41,0,.82-.02,1.23-.05-.3,0-.59-.02-.89-.03-.1,0-.2,0-.3,0-.31,0-.49-.24-.41-.54.17-.65.47-1.23.88-1.76.02-.03.04-.06.07-.09,0,0-.02-.01-.02-.02Z" style="fill: #fff; stroke-width: 0px;"/>
    <path d="m42.1,12.4c-.15.02-.29.03-.44.05-.56.05-1.11,0-1.66-.14-.36-.09-.46-.36-.28-.68.14-.26.29-.52.43-.78.02-.04.04-.07.03-.12-.14.23-.28.46-.42.69-.05.07-.09.15-.13.22-.17.3-.05.65.29.73.34.08.68.13,1.03.16.36.03.72-.01,1.07-.09.03,0,.07-.02.1-.03,0,0,0-.01,0-.02Z" style="fill: #fff; stroke-width: 0px;"/>
    <path d="m44.97,7.35c-.28,0-.56-.02-.84-.02-.12,0-.23,0-.35,0-.2,0-.33-.1-.41-.28-.09-.19-.2-.39-.32-.56-.13-.19-.15-.36-.03-.56.16-.27.3-.55.45-.82.02-.04.04-.08.04-.12-.06.09-.12.18-.18.28-.14.22-.27.45-.4.67-.12.19-.1.38.02.57.13.2.24.4.35.61.1.19.25.3.46.3.41,0,.81-.02,1.22-.02,0,0,0-.02,0-.03Z" style="fill: #fff; stroke-width: 0px;"/>
    <path d="m40.96,5.59s-.1,0-.15,0c-.18.02-.33-.04-.43-.2-.24-.42-.48-.84-.71-1.26-.12-.22-.01-.5.24-.57.34-.09.69-.16.99-.22-.25-.02-.54.03-.84.09-.07.01-.13.03-.2.05-.3.11-.43.42-.27.7.23.41.48.82.72,1.23.11.18.28.24.49.21.05,0,.1-.02.15-.03,0,0,0,0,0-.01Z" style="fill: #fff; stroke-width: 0px;"/>
    <path d="m36.97,8.53c-.22.09-.33.28-.29.5.09.46.27.88.51,1.28.2.33.44.64.73.9.19.18.42.2.63.04-.28.13-.47.04-.65-.15-.52-.58-.9-1.23-1.12-1.97-.08-.26-.04-.4.2-.59Z" style="fill: #fff; stroke-width: 0px;"/>
    <path d="m37.46,8.69c.13.71.68,1.72,1.16,2.11q.1-.11,0-.2c-.53-.51-.88-1.12-1.05-1.83-.01-.06-.02-.12-.11-.08Z" style="fill: #fff; stroke-width: 0px;"/>
    <path d="m43.59,10.98c-.2-.36-.39-.72-.59-1.07-.1-.18-.09-.35.02-.52.1-.15.18-.31.27-.46,0,0-.02,0-.02-.01-.13.17-.26.35-.37.53-.09.13-.1.29-.02.43.22.38.45.76.67,1.14.01,0,.03-.02.04-.03Z" style="fill: #fff; stroke-width: 0px;"/>
    <path d="m41.06,7.51c-.18-.01-.38.18-.39.43,0,.24.19.45.43.47.25.02.44-.14.48-.41-.12.24-.28.36-.53.3-.16-.04-.26-.16-.28-.32-.03-.21.08-.36.29-.46Z" style="fill: #fff; stroke-width: 0px;"/>
    <path d="m40.3,8.18c-.1.04-.2.09-.29.13-.09.04-.15.02-.16-.08-.03-.21-.04-.43-.06-.65-.02.07-.05.14-.05.22,0,.15,0,.31.02.46.02.14.15.19.27.12.1-.06.19-.12.28-.18,0,0,0-.02-.01-.03Z" style="fill: #fff; stroke-width: 0px;"/>
    <path d="m42.06,9c-.19.08-.38.16-.57.22-.12.04-.15,0-.16-.12,0-.1-.01-.2-.02-.3-.01,0-.02,0-.04,0,0,.13-.03.27-.02.4,0,.09.1.15.2.13.23-.05.44-.15.6-.33Z" style="fill: #fff; stroke-width: 0px;"/>
    <path d="m42.07,7.22c-.09.04-.18.08-.27.12-.07.03-.11.02-.18-.01-.19-.08-.25-.21-.24-.41,0-.04,0-.09-.01-.14-.09.16-.08.43,0,.5.26.22.4.21.7-.07Z" style="fill: #fff; stroke-width: 0px;"/>
    <path d="m40.97,4.22c-.31-.02-.67.01-1.03.14.03.02.07.06.1.05.33-.06.65-.13.93-.19Z" style="fill: #fff; stroke-width: 0px;"/>
    <path d="m40.09,8.72c-.04.05-.04.12.01.18.16.2.36.32.63.35-.04-.02-.08-.04-.11-.07-.14-.09-.28-.19-.41-.29-.05-.04-.08-.11-.12-.17Z" style="fill: #fff; stroke-width: 0px;"/>
    <path d="m40.13,7c-.03.07,0,.13.07.18.08.06.17.11.25.17.19.12.25.1.41-.07,0,0-.02,0-.02,0-.15.11-.29.06-.42-.05-.04-.03-.09-.05-.13-.08-.06-.04-.11-.1-.17-.15Z" style="fill: #fff; stroke-width: 0px;"/>
    <path d="m42.22,8.35c-.08-.06-.16-.12-.24-.18-.06-.04-.08-.08-.08-.15,0-.1,0-.19-.04-.29-.01.04-.03.09-.04.13-.01.06-.02.12-.02.18,0,.05.02.13.05.15.1.07.22.13.33.19,0-.01.02-.03.03-.04Z" style="fill: #fff; stroke-width: 0px;"/>
    <path d="m40.4,12.24c-.22-.09-.41-.17-.6-.25.04.14.29.25.6.25Z" style="fill: #fff; stroke-width: 0px;"/>
  </g>
  <text transform="translate(.78 13.28)" style="fill: #fff; font-family: DINCondensed-Bold, &apos;DIN Condensed&apos;; font-size: 15px; font-weight: 700;"><tspan x="0" y="0">CINÉPH</tspan></text>
  <text transform="translate(48.29 13.27)" style="fill: #fff; font-family: DINCondensed-Bold, &apos;DIN Condensed&apos;; font-size: 15px; font-weight: 700;"><tspan x="0" y="0">RIA</tspan></text>
</svg>
